# xmcd CD database file
#
# Track frame offsets:
#	150
#	20220
#	43765
#	66362
#	86040
#	103847
#	126367
#	141060
#	162965
#	185602
#	204597
#
# Disc length: 2944 seconds
#
# Revision: 0
# Processed by: cddbd v1.5.2PL0 Copyright (c) Steve Scherf et al.
# Submitted via: CDex 1.70beta2
#
DISCID=a70b7e0b
DTITLE=Ma-Ka - Apsaras
DYEAR=2002
DGENRE=New Age
TTITLE0=Apsaras
TTITLE1=落葉と風
TTITLE2=Evening Star
TTITLE3=こもれび
TTITLE4=Azumino
TTITLE5=Prism
TTITLE6=A Fine Day
TTITLE7=夏の終わり
TTITLE8=Soaring Into The Dusk
TTITLE9=水の鼓動
TTITLE10=クルーン
EXTD=YEAR: 2002
EXTT0=
EXTT1=
EXTT2=
EXTT3=
EXTT4=
EXTT5=
EXTT6=
EXTT7=
EXTT8=
EXTT9=
EXTT10=
PLAYORDER=
